<svg width="211" height="40" viewBox="0 0 211 40" fill="none" xmlns="http://www.w3.org/2000/svg">
<g clip-path="url(#clip0_5191_31468)">
<path d="M26.7725 10.2798C26.6347 10.1479 26.4478 10.0737 26.253 10.0737C26.0581 10.0737 25.8713 10.1479 25.7334 10.2798L22.8807 13.0987C22.743 13.2308 22.6656 13.41 22.6656 13.5967C22.6656 13.7835 22.743 13.9626 22.8807 14.0947L37.4384 28.0294C38.3774 26.2404 38.9939 24.312 39.2618 22.3259L26.7725 10.2798Z" fill="#8C7D5F"/>
<path d="M24.1747 7.83648L21.322 5.11155C21.2546 5.04649 21.1744 4.99486 21.0861 4.95963C20.9977 4.9244 20.903 4.90625 20.8073 4.90625C20.7117 4.90625 20.6169 4.9244 20.5286 4.95963C20.4403 4.99486 20.3601 5.04649 20.2927 5.11155L2.41162 22.241C2.673 24.2332 3.28628 26.1683 4.2252 27.9633L24.1747 8.83248C24.3124 8.70034 24.3898 8.52123 24.3898 8.33448C24.3898 8.14773 24.3124 7.96861 24.1747 7.83648V7.83648Z" fill="#8C7D5F"/>
<path d="M39.4479 19.488C39.3027 14.9426 37.3533 10.6217 33.9976 7.40697C30.6418 4.19226 26.1327 2.32614 21.3904 2.18945L39.4479 19.488Z" fill="#8C7D5F"/>
<path d="M20.2145 2.18945C15.5125 2.35503 11.0502 4.22009 7.7241 7.40987C4.39799 10.5997 2.4546 14.8778 2.28442 19.3847L20.2145 2.18945Z" fill="#8C7D5F"/>
<path d="M26.7627 20.7566C26.6953 20.6915 26.6151 20.6399 26.5268 20.6046C26.4385 20.5694 26.3437 20.5513 26.2481 20.5513C26.1524 20.5513 26.0577 20.5694 25.9693 20.6046C25.881 20.6399 25.8008 20.6915 25.7334 20.7566L22.8807 23.4815C22.743 23.6136 22.6656 23.7927 22.6656 23.9795C22.6656 24.1662 22.743 24.3454 22.8807 24.4775L32.6251 33.8174C34.0511 32.6968 35.2994 31.3832 36.3307 29.9179L26.7627 20.7566Z" fill="#8C7D5F"/>
<path d="M24.1744 19.2622C24.2423 19.1975 24.2962 19.1207 24.3329 19.036C24.3697 18.9514 24.3886 18.8606 24.3886 18.7689C24.3886 18.6772 24.3697 18.5864 24.3329 18.5017C24.2962 18.417 24.2423 18.3402 24.1744 18.2755L21.3217 15.5412C21.2543 15.4762 21.1741 15.4245 21.0858 15.3893C20.9974 15.3541 20.9027 15.3359 20.807 15.3359C20.7114 15.3359 20.6166 15.3541 20.5283 15.3893C20.44 15.4245 20.3598 15.4762 20.2924 15.5412L5.35229 29.8518C6.3648 31.3222 7.59676 32.6423 9.00888 33.77L24.1744 19.2622Z" fill="#8C7D5F"/>
<path d="M22.1748 33.2256C21.7336 33.2256 21.3513 33.3008 21.3513 34.1652C21.3513 35.0297 21.7336 35.1048 22.1748 35.1048C22.6159 35.1048 22.9885 35.0297 22.9885 34.1652C22.9885 33.3008 22.6061 33.2256 22.1748 33.2256Z" fill="#8C7D5F"/>
<path d="M19.3415 33.2256C18.9102 33.2256 18.5181 33.3008 18.5181 34.1652C18.5181 35.0297 18.9102 35.1048 19.3415 35.1048C19.7729 35.1048 20.165 35.0297 20.165 34.1652C20.165 33.3008 19.7925 33.2256 19.3415 33.2256Z" fill="#8C7D5F"/>
<path d="M25.243 34.2026H24.2627C24.2627 34.7006 24.4196 35.0201 25.0077 35.0201C25.7528 35.0201 25.7528 34.71 25.7528 34.6067C25.7528 34.5033 25.6744 34.2026 25.243 34.2026Z" fill="#8C7D5F"/>
<path d="M21.3219 25.9712C21.1841 25.8393 20.9972 25.7651 20.8023 25.7651C20.6075 25.7651 20.4206 25.8393 20.2828 25.9712L10.8423 35.0199C13.8233 36.8477 17.2881 37.8191 20.8268 37.8191C24.3656 37.8191 27.8304 36.8477 30.8114 35.0199L21.3219 25.9712ZM17.6065 35.0199V35.2923H15.7243V34.7098C15.7122 34.6194 15.7214 34.5276 15.7512 34.441C15.781 34.3545 15.8306 34.2755 15.8964 34.2097C15.9622 34.1439 16.0426 34.0931 16.1315 34.0609C16.2205 34.0288 16.3158 34.0161 16.4105 34.0239H16.9987C17.0488 34.0254 17.0987 34.016 17.1445 33.9965C17.1903 33.9769 17.231 33.9478 17.2634 33.9111C17.3227 33.8353 17.3538 33.7427 17.3516 33.648C17.3571 33.6005 17.3521 33.5525 17.3369 33.507C17.3217 33.4615 17.2965 33.4196 17.2632 33.3841C17.2299 33.3486 17.1891 33.3203 17.1435 33.301C17.0979 33.2817 17.0485 33.2719 16.9987 33.2721H15.7733V33.0091H16.9987C17.1755 33.0091 17.3451 33.0764 17.4701 33.1962C17.5951 33.316 17.6653 33.4785 17.6653 33.648C17.6653 33.8175 17.5951 33.98 17.4701 34.0998C17.3451 34.2196 17.1755 34.2869 16.9987 34.2869H16.4105C16.1262 34.2869 15.9988 34.4185 15.9988 34.7098V35.0668L17.6065 35.0199ZM19.3417 35.3205C18.8319 35.3205 18.2437 35.189 18.2437 34.1366C18.2437 33.0842 18.8319 32.9621 19.3417 32.9621C19.8514 32.9621 20.4494 33.0936 20.4494 34.1366C20.4494 35.1796 19.8612 35.3205 19.3417 35.3205V35.3205ZM22.1748 35.3205C21.6552 35.3205 21.067 35.189 21.067 34.1366C21.067 33.0842 21.6552 32.9621 22.1748 32.9621C22.6944 32.9621 23.2728 33.0936 23.2728 34.1366C23.2728 35.1796 22.7336 35.3205 22.1748 35.3205V35.3205ZM24.9785 35.3205C24.2825 35.3205 23.9982 34.9353 23.9982 34.1554C23.9982 33.3755 24.3315 32.9903 24.9785 32.9903H25.9588V33.2534H24.9785C24.4393 33.2534 24.2629 33.5352 24.2335 33.9675H25.2138C25.8412 33.9675 25.9686 34.3245 25.9686 34.6346C25.9686 34.9447 25.8706 35.2923 24.9785 35.2923V35.3205Z" fill="#8C7D5F"/>
<path d="M20.8613 40.0001C16.7334 40.0001 12.6982 38.8269 9.26595 36.6287C5.83373 34.4306 3.15864 31.3063 1.57896 27.6509C-0.000715851 23.9955 -0.414041 19.9732 0.391272 16.0927C1.19658 12.2122 3.18436 8.64768 6.10322 5.84997C9.02208 3.05226 12.7409 1.147 16.7895 0.375116C20.8381 -0.39677 25.0346 -0.000608587 28.8483 1.5135C32.6619 3.02761 35.9215 5.59166 38.2149 8.88141C40.5082 12.1712 41.7323 16.0389 41.7323 19.9954C41.7297 25.3002 39.5299 30.3871 35.6164 34.1381C31.7029 37.8892 26.3958 39.9976 20.8613 40.0001V40.0001ZM20.8613 0.751829C16.8876 0.749971 13.0027 1.8778 9.69797 3.99263C6.39322 6.10746 3.81713 9.11427 2.29559 12.6327C0.774059 16.1511 0.375452 20.023 1.15019 23.7586C1.92493 27.4942 3.8382 30.9256 6.64798 33.6187C9.45775 36.3119 13.0378 38.1458 16.9351 38.8883C20.8325 39.6309 24.8721 39.2489 28.5428 37.7905C32.2136 36.3321 35.3507 33.8629 37.5571 30.6954C39.7635 27.5278 40.9402 23.8041 40.9382 19.9954C40.9304 14.894 38.8127 10.0036 35.0492 6.39638C31.2857 2.78912 26.1836 0.759285 20.8613 0.751829V0.751829Z" fill="#8C7D5F"/>
<path d="M120.276 15.767V15.7106C121.122 15.5895 121.923 15.2684 122.608 14.7763C123.293 14.2842 123.839 13.6366 124.197 12.8917C124.5 12.2513 124.657 11.5561 124.657 10.8527C124.657 10.1494 124.5 9.45419 124.197 8.81375C123.886 8.16486 123.432 7.58799 122.867 7.12258C122.302 6.65716 121.639 6.31415 120.923 6.11701C120.768 6.07366 120.611 6.03914 120.452 6.01365C120.41 6.00472 120.367 6.00472 120.325 6.01365C120.06 5.96493 119.79 5.93976 119.521 5.93848H109.717V14.1602H107.531V15.8234H109.668V23.923H111.394V15.8234H118.256C118.58 16.3214 119.727 18.2006 123.02 23.7351L123.207 24.0357L124.736 23.3028L120.276 15.767ZM111.394 7.54524H119.481C120.385 7.54773 121.25 7.89334 121.887 8.5063C122.525 9.11925 122.883 9.94954 122.883 10.8152V10.8715C122.885 11.077 122.862 11.2819 122.815 11.4823C122.655 12.2177 122.237 12.8784 121.63 13.3539C121.024 13.8294 120.265 14.0908 119.481 14.0945H111.394V7.54524Z" fill="#595757"/>
<path d="M171.654 23.9231C170.071 23.9231 168.552 23.3203 167.433 22.2471C166.313 21.174 165.684 19.7185 165.684 18.2008V16.5846C165.684 15.067 166.313 13.6115 167.433 12.5383C168.552 11.4652 170.071 10.8623 171.654 10.8623C173.237 10.8623 174.756 11.4652 175.876 12.5383C176.995 13.6115 177.624 15.067 177.624 16.5846V18.2008C177.624 19.7185 176.995 21.174 175.876 22.2471C174.756 23.3203 173.237 23.9231 171.654 23.9231V23.9231ZM171.654 12.5254C170.532 12.5279 169.456 12.9564 168.662 13.7171C167.869 14.4778 167.422 15.5088 167.419 16.5846V18.2008C167.419 19.2774 167.865 20.3098 168.66 21.0711C169.454 21.8323 170.531 22.26 171.654 22.26C172.777 22.26 173.854 21.8323 174.649 21.0711C175.443 20.3098 175.889 19.2774 175.889 18.2008V16.5846C175.887 15.5088 175.439 14.4778 174.646 13.7171C173.852 12.9564 172.776 12.5279 171.654 12.5254V12.5254Z" fill="#595757"/>
<path d="M149.94 24.1111H148.215V10.8623H156.39C156.884 10.8623 157.373 10.9557 157.83 11.1371C158.286 11.3186 158.7 11.5845 159.049 11.9197C159.398 12.2549 159.674 12.6527 159.862 13.0904C160.05 13.5281 160.146 13.9971 160.145 14.4705V23.9231H158.41V14.4705C158.41 13.9546 158.196 13.4599 157.816 13.0951C157.435 12.7304 156.919 12.5254 156.381 12.5254H149.94V24.1111Z" fill="#595757"/>
<path d="M141.431 23.9231H134.235C133.239 23.9232 132.283 23.5443 131.577 22.8697C130.871 22.195 130.473 21.2797 130.471 20.3244V14.743C130.473 13.7145 130.901 12.7289 131.66 12.0017C132.418 11.2744 133.447 10.8648 134.52 10.8623H138.411C139.485 10.8623 140.515 11.2712 141.274 11.9989C142.034 12.7267 142.46 13.7138 142.46 14.743C142.46 15.7722 142.034 16.7592 141.274 17.487C140.515 18.2148 139.485 18.6236 138.411 18.6236H132.255V20.3244C132.258 20.8386 132.473 21.3309 132.853 21.6936C133.233 22.0564 133.748 22.26 134.284 22.26H141.48L141.431 23.9231ZM132.206 16.9605H138.411C139.025 16.9605 139.613 16.7269 140.047 16.311C140.481 15.8951 140.725 15.3311 140.725 14.743C140.725 14.1548 140.481 13.5908 140.047 13.1749C139.613 12.7591 139.025 12.5254 138.411 12.5254H134.49C133.877 12.5254 133.288 12.7591 132.854 13.1749C132.42 13.5908 132.177 14.1548 132.177 14.743L132.206 16.9605Z" fill="#595757"/>
<path d="M208.994 23.9231H201.799C200.804 23.9207 199.85 23.5407 199.147 22.8664C198.443 22.192 198.047 21.2781 198.044 20.3244V14.743C198.044 13.7138 198.471 12.7267 199.23 11.9989C199.989 11.2712 201.019 10.8623 202.093 10.8623H205.926C207 10.8623 208.03 11.2712 208.789 11.9989C209.548 12.7267 209.975 13.7138 209.975 14.743C209.975 15.7722 209.548 16.7592 208.789 17.487C208.03 18.2148 207 18.6236 205.926 18.6236H199.779V20.3244C199.779 20.8377 199.992 21.3301 200.371 21.6931C200.75 22.0561 201.263 22.26 201.799 22.26H208.994V23.9231ZM199.779 16.9605H205.926C206.54 16.9605 207.128 16.7269 207.562 16.311C207.996 15.8951 208.24 15.3311 208.24 14.743C208.24 14.1548 207.996 13.5908 207.562 13.1749C207.128 12.7591 206.54 12.5254 205.926 12.5254H202.093C201.479 12.5254 200.891 12.7591 200.457 13.1749C200.023 13.5908 199.779 14.1548 199.779 14.743V16.9605Z" fill="#595757"/>
<path d="M191.78 10.8623L187.437 22.5043L183.094 10.8623H181.251L186.124 23.9231H188.751L193.623 10.8623H191.78Z" fill="#595757"/>
<path d="M55.1136 5.8916H53.3392V23.8761H68.2597V22.213H55.1136V5.8916Z" fill="#595757"/>
<path d="M77.0434 23.8852C75.4608 23.8827 73.9438 23.279 72.8247 22.2064C71.7057 21.1338 71.0758 19.6797 71.0732 18.1628V16.5373C71.0732 15.0196 71.7022 13.5641 72.8219 12.491C73.9415 11.4178 75.46 10.8149 77.0434 10.8149C78.6268 10.8149 80.1453 11.4178 81.2649 12.491C82.3845 13.5641 83.0135 15.0196 83.0135 16.5373V18.1628C83.0135 19.6805 82.3845 21.136 81.2649 22.2091C80.1453 23.2823 78.6268 23.8852 77.0434 23.8852V23.8852ZM77.0434 12.4781C75.921 12.4806 74.8453 12.909 74.0517 13.6697C73.258 14.4304 72.811 15.4615 72.8084 16.5373V18.1628C72.8084 19.2394 73.2546 20.2719 74.0488 21.0331C74.843 21.7944 75.9202 22.222 77.0434 22.222C78.1666 22.222 79.2438 21.7944 80.038 21.0331C80.8322 20.2719 81.2784 19.2394 81.2784 18.1628V16.5373C81.2784 16.0042 81.1688 15.4764 80.956 14.9839C80.7432 14.4914 80.4312 14.0439 80.038 13.667C79.6447 13.2901 79.1779 12.9911 78.664 12.7871C78.1502 12.5831 77.5995 12.4781 77.0434 12.4781V12.4781Z" fill="#595757"/>
<path d="M93.4245 10.8149C91.8419 10.8174 90.3249 11.4211 89.2058 12.4937C88.0868 13.5663 87.4569 15.0204 87.4543 16.5373V18.1628C87.4543 19.6805 88.0833 21.136 89.203 22.2091C90.3226 23.2823 91.8411 23.8852 93.4245 23.8852H97.6595V24.4396C97.6569 24.9538 97.442 25.4461 97.0617 25.8088C96.6814 26.1716 96.1667 26.3752 95.6302 26.3752H88.5817V28.0383H95.6302C96.6269 28.0383 97.5829 27.6595 98.2886 26.9848C98.9943 26.3102 99.3921 25.3949 99.3946 24.4396V10.8149H93.4245ZM93.4245 22.222C92.3021 22.2196 91.2264 21.7911 90.4328 21.0304C89.6391 20.2697 89.1921 19.2386 89.1895 18.1628V16.5373C89.1921 15.4615 89.6391 14.4304 90.4328 13.6697C91.2264 12.909 92.3021 12.4806 93.4245 12.4781H97.6595V22.222H93.4245Z" fill="#595757"/>
<path d="M117.256 33.4884C117.28 33.6102 117.273 33.7355 117.237 33.8545C117.202 33.9735 117.137 34.0829 117.05 34.174C116.962 34.2651 116.854 34.3355 116.733 34.3796C116.613 34.4237 116.483 34.4403 116.354 34.428H111.6C111.471 34.4403 111.341 34.4237 111.221 34.3796C111.1 34.3355 110.991 34.2651 110.904 34.174C110.817 34.0829 110.752 33.9735 110.717 33.8545C110.681 33.7355 110.674 33.6102 110.698 33.4884V29.1755C110.674 29.0537 110.681 28.9284 110.717 28.8094C110.752 28.6904 110.817 28.581 110.904 28.4899C110.991 28.3987 111.1 28.3283 111.221 28.2843C111.341 28.2402 111.471 28.2236 111.6 28.2359H116.354C116.483 28.2236 116.613 28.2402 116.733 28.2843C116.854 28.3283 116.962 28.3987 117.05 28.4899C117.137 28.581 117.202 28.6904 117.237 28.8094C117.273 28.9284 117.28 29.0537 117.256 29.1755V33.4884ZM116.129 33.7797C116.472 33.7797 116.57 33.7045 116.57 33.385V29.26C116.57 28.9594 116.472 28.8748 116.129 28.8748H111.825C111.482 28.8748 111.384 28.95 111.384 29.26V33.385C111.384 33.7139 111.482 33.7797 111.825 33.7797H116.129Z" fill="#595757"/>
<path d="M121.746 29.3351C121.214 30.1329 120.517 30.8174 119.697 31.3459C119.64 31.3868 119.572 31.4097 119.501 31.4117C119.449 31.4117 119.398 31.3998 119.352 31.3769C119.306 31.354 119.266 31.3208 119.236 31.2802C119.191 31.231 119.167 31.1673 119.168 31.1016C119.17 31.0429 119.187 30.9856 119.218 30.9348C119.249 30.884 119.292 30.8412 119.344 30.8104C119.973 30.4131 120.518 29.9063 120.952 29.3163C121.302 28.852 121.588 28.3468 121.805 27.8129C121.822 27.7534 121.859 27.7009 121.911 27.6635C121.962 27.6262 122.025 27.606 122.089 27.6062H122.236C122.299 27.6224 122.355 27.6576 122.396 27.7067C122.437 27.7558 122.46 27.8161 122.462 27.8787C122.467 27.9193 122.467 27.9603 122.462 28.0009C122.362 28.2604 122.241 28.5118 122.099 28.7526H122.687H125.001C125.116 28.7397 125.233 28.7515 125.343 28.7871C125.453 28.8227 125.553 28.8813 125.637 28.9586C125.72 29.0359 125.784 29.1301 125.825 29.2342C125.866 29.3383 125.883 29.4498 125.873 29.5607C125.888 29.6667 125.888 29.7741 125.873 29.8801C125.602 31.1534 124.943 32.3211 123.98 33.2359C123.017 34.1506 121.793 34.7714 120.462 35.0199H120.354C120.286 35.019 120.22 34.9977 120.166 34.9589C120.111 34.9201 120.071 34.8658 120.05 34.8038C120.046 34.7694 120.046 34.7348 120.05 34.7004C120.051 34.6325 120.075 34.5667 120.12 34.5138C120.164 34.4609 120.226 34.424 120.295 34.4091C121.507 34.1812 122.62 33.6126 123.493 32.7759C124.366 31.9391 124.959 30.8721 125.197 29.711C125.2 29.6547 125.2 29.5982 125.197 29.5419C125.197 29.3821 125.109 29.3069 124.844 29.3069L121.746 29.3351ZM125.491 27.4559C125.784 27.7661 126.05 28.0993 126.285 28.4519C126.32 28.5092 126.34 28.5736 126.344 28.6398C126.339 28.7029 126.308 28.7618 126.259 28.8038C126.21 28.8459 126.145 28.8679 126.079 28.8653C126.031 28.863 125.983 28.8489 125.942 28.8242C125.901 28.7996 125.867 28.7652 125.844 28.7244C125.622 28.3949 125.376 28.0809 125.109 27.7848C125.077 27.7614 125.052 27.7314 125.035 27.6972C125.018 27.6629 125.01 27.6254 125.01 27.5874C125.013 27.5268 125.04 27.4694 125.086 27.4274C125.131 27.3853 125.192 27.3619 125.256 27.3619C125.341 27.3742 125.419 27.418 125.471 27.4841L125.491 27.4559ZM126.579 27.0706C126.86 27.3586 127.11 27.6734 127.324 28.0103C127.356 28.0646 127.373 28.1262 127.373 28.1888C127.371 28.2519 127.343 28.3117 127.295 28.3555C127.247 28.3993 127.184 28.4237 127.118 28.4237C127.07 28.4233 127.024 28.4109 126.982 28.3879C126.941 28.3648 126.907 28.3318 126.883 28.2921C126.676 27.9646 126.447 27.6507 126.197 27.3525C126.144 27.2989 126.112 27.2289 126.108 27.1552C126.111 27.0945 126.138 27.0372 126.184 26.9951C126.229 26.9531 126.29 26.9296 126.354 26.9297C126.399 26.9407 126.442 26.9617 126.477 26.991C126.513 27.0204 126.541 27.0573 126.559 27.0988L126.579 27.0706Z" fill="#595757"/>
<path d="M129.873 31.891C129.859 31.9699 129.816 32.0415 129.753 32.0931C129.689 32.1448 129.608 32.1731 129.525 32.1731C129.441 32.1731 129.361 32.1448 129.297 32.0931C129.233 32.0415 129.191 31.9699 129.177 31.891V28.0761C129.175 28.0325 129.183 27.989 129.201 27.9487C129.218 27.9084 129.245 27.8722 129.278 27.8427C129.312 27.8132 129.352 27.7911 129.395 27.7778C129.439 27.7646 129.484 27.7606 129.53 27.7661C129.573 27.7621 129.617 27.767 129.659 27.7803C129.7 27.7937 129.738 27.8152 129.771 27.8435C129.803 27.8718 129.829 27.9063 129.846 27.9448C129.864 27.9832 129.873 28.0248 129.873 28.0667V31.891ZM133.608 28.0761C133.606 28.0342 133.614 27.9925 133.63 27.9536C133.647 27.9147 133.671 27.8796 133.703 27.8504C133.734 27.8212 133.772 27.7986 133.813 27.7841C133.854 27.7695 133.897 27.7634 133.941 27.7661C133.986 27.7609 134.032 27.7646 134.076 27.7772C134.12 27.7897 134.161 27.8107 134.195 27.8389C134.23 27.8671 134.259 27.9019 134.279 27.941C134.3 27.9802 134.311 28.023 134.314 28.0667V30.8856C134.36 31.4065 134.282 31.9307 134.087 32.4189C133.892 32.907 133.584 33.3465 133.186 33.7045C132.391 34.3036 131.437 34.6778 130.432 34.7851V34.7851C130.348 34.7885 130.266 34.7628 130.202 34.7126C130.137 34.6625 130.093 34.5914 130.079 34.5126C130.075 34.4908 130.075 34.4686 130.079 34.4468C130.076 34.409 130.081 34.3711 130.094 34.3353C130.107 34.2996 130.128 34.2667 130.154 34.2386C130.181 34.2105 130.213 34.1879 130.249 34.172C130.285 34.1561 130.323 34.1473 130.363 34.1461C131.246 34.0675 132.085 33.7406 132.775 33.2065C133.1 32.8943 133.348 32.5162 133.501 32.0999C133.653 31.6836 133.707 31.2397 133.657 30.8011L133.608 28.0761Z" fill="#595757"/>
<path d="M142.95 28.3108C142.955 28.3451 142.955 28.3798 142.95 28.4142C142.643 29.7979 141.987 31.0884 141.039 32.1727C140.014 33.2871 138.682 34.1013 137.196 34.5218H137.039C136.968 34.5247 136.899 34.5023 136.844 34.4589C136.79 34.4154 136.755 34.3541 136.745 34.2868C136.741 34.2462 136.741 34.2053 136.745 34.1647C136.741 34.0972 136.763 34.0306 136.806 33.9771C136.849 33.9236 136.911 33.8868 136.98 33.8734C138.358 33.4686 139.592 32.7079 140.548 31.6747C141.397 30.6845 141.988 29.5156 142.274 28.2638C142.274 28.0665 142.411 27.9819 142.578 27.9819H142.705C142.744 27.9876 142.781 28.0007 142.815 28.0204C142.848 28.0402 142.877 28.0661 142.9 28.0968C142.923 28.1274 142.939 28.1622 142.948 28.1989C142.956 28.2357 142.957 28.2737 142.95 28.3108Z" fill="#595757"/>
<path d="M148.705 29.5514C149.883 30.8636 151.13 32.118 152.44 33.3099C152.526 33.3851 152.579 33.4896 152.587 33.6012C152.583 33.6908 152.549 33.7768 152.489 33.8455C152.461 33.883 152.424 33.9136 152.382 33.9348C152.339 33.9561 152.292 33.9673 152.244 33.9677C152.192 33.9669 152.14 33.9556 152.093 33.9345C152.046 33.9135 152.004 33.8832 151.969 33.8455C150.685 32.6522 149.332 31.2428 148.244 30.0119C147.783 29.4951 147.715 29.4481 147.548 29.4481C147.381 29.4481 147.293 29.5138 146.989 29.9649C146.479 30.7354 145.823 31.6374 145.274 32.3045C145.24 32.3498 145.196 32.3869 145.145 32.413C145.094 32.4391 145.037 32.4534 144.98 32.4549C144.878 32.4516 144.781 32.4151 144.705 32.3515C144.668 32.3215 144.638 32.284 144.618 32.2418C144.598 32.1996 144.587 32.1537 144.587 32.1072C144.594 32.0063 144.635 31.9104 144.705 31.8347C145.364 31.113 145.964 30.3433 146.499 29.5326C146.94 28.8655 147.146 28.7528 147.479 28.7528C147.813 28.7528 148.058 28.8185 148.705 29.5514ZM150.548 28.6118C150.843 28.9171 151.109 29.2473 151.342 29.5984C151.374 29.6595 151.391 29.7272 151.391 29.7957C151.386 29.8572 151.357 29.9146 151.31 29.9565C151.262 29.9983 151.2 30.0214 151.136 30.0212C151.088 30.0181 151.041 30.0036 151 29.979C150.959 29.9545 150.925 29.9205 150.901 29.8803C150.678 29.549 150.429 29.2349 150.156 28.9407C150.1 28.8852 150.068 28.8112 150.067 28.734C150.069 28.7043 150.076 28.6752 150.089 28.6483C150.102 28.6214 150.12 28.5973 150.143 28.5772C150.166 28.5571 150.193 28.5415 150.222 28.5314C150.251 28.5212 150.282 28.5166 150.313 28.5178C150.359 28.5203 150.404 28.5326 150.444 28.5537C150.485 28.5748 150.52 28.6043 150.548 28.64V28.6118ZM151.528 28.0762C151.809 28.3642 152.059 28.679 152.273 29.0158C152.302 29.0716 152.319 29.1323 152.322 29.1944C152.32 29.2575 152.292 29.3173 152.244 29.3611C152.197 29.4049 152.133 29.4293 152.067 29.4293C152.019 29.4279 151.971 29.4142 151.93 29.3894C151.888 29.3646 151.855 29.3297 151.832 29.2883C151.63 28.973 151.4 28.6744 151.146 28.3957C151.092 28.3388 151.061 28.2656 151.058 28.189C151.059 28.1593 151.066 28.1303 151.079 28.1034C151.092 28.0765 151.111 28.0523 151.133 28.0322C151.156 28.0121 151.183 27.9966 151.212 27.9864C151.241 27.9762 151.272 27.9716 151.303 27.9729C151.348 27.9807 151.391 27.9994 151.427 28.0274C151.463 28.0553 151.491 28.0915 151.508 28.1326L151.528 28.0762Z" fill="#595757"/>
</g>
<defs>
<clipPath id="clip0_5191_31468">
<rect width="209.945" height="40" fill="white"/>
</clipPath>
</defs>
</svg>